<svg xmlns="http://www.w3.org/2000/svg" width="116" height="8" viewBox="0 0 116 8" fill="none">
<path d="M0 7.79114H7.37598V6.68372H0V7.79114ZM7.73773 7.79114H15.1137V6.68372H7.73773V7.79114ZM17.1845 6.09583C17.622 6.09583 17.9637 5.75403 17.9637 5.31653C17.9637 4.87903 17.622 4.53723 17.1845 4.53723C16.747 4.53723 16.4052 4.87903 16.4052 5.31653C16.4052 5.75403 16.747 6.09583 17.1845 6.09583ZM19.2484 7.79114H26.6243V6.68372H19.2484V7.79114ZM26.9861 7.79114H34.3621V6.68372H26.9861V7.79114ZM36.4328 6.09583C36.8703 6.09583 37.2121 5.75403 37.2121 5.31653C37.2121 4.87903 36.8703 4.53723 36.4328 4.53723C35.9953 4.53723 35.6535 4.87903 35.6535 5.31653C35.6535 5.75403 35.9953 6.09583 36.4328 6.09583ZM38.4967 7.79114H45.8727V6.68372H38.4967V7.79114ZM46.2345 7.79114H53.6104V6.68372H46.2345V7.79114ZM55.107 2.06262H60.107V0.796997H55.107V2.06262ZM61.6766 7.79114H69.0526V6.68372H61.6766V7.79114ZM69.4144 7.79114H76.7904V6.68372H69.4144V7.79114ZM78.8611 6.09583C79.2986 6.09583 79.6404 5.75403 79.6404 5.31653C79.6404 4.87903 79.2986 4.53723 78.8611 4.53723C78.4236 4.53723 78.0818 4.87903 78.0818 5.31653C78.0818 5.75403 78.4236 6.09583 78.8611 6.09583ZM80.925 7.79114H88.301V6.68372H80.925V7.79114ZM88.6627 7.79114H96.0387V6.68372H88.6627V7.79114ZM98.1095 6.09583C98.547 6.09583 98.8887 5.75403 98.8887 5.31653C98.8887 4.87903 98.547 4.53723 98.1095 4.53723C97.672 4.53723 97.3302 4.87903 97.3302 5.31653C97.3302 5.75403 97.672 6.09583 98.1095 6.09583ZM100.173 7.79114H107.549V6.68372H100.173V7.79114ZM107.911 7.79114H115.287V6.68372H107.911V7.79114Z" fill="#ADBFDF"/>
</svg>